HIERARCHY
ROOT Hips
{
     OFFSET 27.98490 95.20650 -33.74910
     CHANNELS 6 Xposition Yposition Zposition Zrotation Xrotation Yrotation
     JOINT Spine
     {
          OFFSET 0.00000 11.89050 0.00000
          CHANNELS 3 Zrotation Xrotation Yrotation
          JOINT Spine1
          {
               OFFSET 0.00000 25.65740 0.12766
               CHANNELS 3 Zrotation Xrotation Yrotation
               JOINT HEad
               {
                    OFFSET 0.00000 8.73416 0.01134
                    CHANNELS 3 Zrotation Xrotation Yrotation
                    End Site
                    {
                         OFFSET -0.29000 12.77420 2.51395
                    }
               }
               JOINT LeftShoulder1
               {
                    OFFSET 8.99000 -0.36225 -0.22000
                    CHANNELS 3 Zrotation Xrotation Yrotation
                    JOINT LeftArm
                    {
                         OFFSET 10.28270 -0.00338 0.32212
                         CHANNELS 3 Zrotation Xrotation Yrotation
                         JOINT LeftForeArm
                         {
                              OFFSET 32.76690 0.09914 -1.42434
                              CHANNELS 3 Zrotation Xrotation Yrotation
                              JOINT LeftHand
                              {
                                   OFFSET 27.56430 0.08536 1.02216
                                   CHANNELS 3 Zrotation Xrotation Yrotation
                                   End Site
                                   {
                                        OFFSET 16.74430 -0.60000 1.50291
                                   }
                              }
                         }
                    }
               }
               JOINT RightShoulder
               {
                    OFFSET -8.99000 -0.36225 -0.22000
                    CHANNELS 3 Zrotation Xrotation Yrotation
                    JOINT RightArm
                    {
                         OFFSET -10.28270 -0.00338 0.32212
                         CHANNELS 3 Zrotation Xrotation Yrotation
                         JOINT RightForeArm
                         {
                              OFFSET -32.89710 0.09914 -1.42434
                              CHANNELS 3 Zrotation Xrotation Yrotation
                              JOINT RightHand
                              {
                                   OFFSET -27.49210 0.08536 1.02216
                                   CHANNELS 3 Zrotation Xrotation Yrotation
                                   End Site
                                   {
                                        OFFSET -16.63120 -0.60000 1.50291
                                   }
                              }
                         }
                    }
               }
          }
     }
     JOINT LeftUpLeg
     {
          OFFSET 8.94580 -8.66707 0.10165
          CHANNELS 3 Zrotation Xrotation Yrotation
          JOINT LeftLeg
          {
               OFFSET 0.00000 -44.42270 1.37270
               CHANNELS 3 Zrotation Xrotation Yrotation
               JOINT LeftFoot
               {
                    OFFSET -0.25355 -42.09240 -1.46059
                    CHANNELS 3 Zrotation Xrotation Yrotation
                    JOINT LeftToes
                    {
                         OFFSET -0.04000 -4.41509 8.49910
                         CHANNELS 3 Zrotation Xrotation Yrotation
                         End Site
                         {
                              OFFSET 0.08000 -0.04745 9.77979
                         }
                    }
               }
          }
     }
     JOINT RightUpLeg
     {
          OFFSET -8.94580 -8.66707 0.10165
          CHANNELS 3 Zrotation Xrotation Yrotation
          JOINT RightLeg
          {
               OFFSET 0.00000 -44.42270 1.37270
               CHANNELS 3 Zrotation Xrotation Yrotation
               JOINT RightFoot
               {
                    OFFSET 0.25355 -42.09240 -1.46059
                    CHANNELS 3 Zrotation Xrotation Yrotation
                    JOINT RightToes
                    {
                         OFFSET 0.04000 -4.41509 8.49910
                         CHANNELS 3 Zrotation Xrotation Yrotation
                         End Site
                         {
                              OFFSET -0.08000 -0.13745 9.77979
                         }
                    }
               }
          }
     }
}
MOTION
Frames: 14
Frame Time: 0.01667
35.16000 89.14750 -15.66590 -5.36815 -8.43810 25.90900 -3.23412 9.41366 0.85906 -11.75480 19.74410 3.55263 9.63204 -8.77171 -7.50385 0.00000 0.00000 0.00000 -49.99820 12.05380 -104.48300 23.18020 23.79170 -100.35300 30.77970 12.11370 12.71270 18.90740 2.26365 8.22425 76.72110 -28.72250 66.96340 -20.34580 23.13660 84.38820 3.38507 10.22720 4.89567 15.07650 -39.07720 8.25981 3.16178 39.90310 -10.78460 -12.42440 2.47295 1.07108 -3.23150 -0.50763 -10.51330 -5.09768 9.85421 -5.27106 5.42251 46.59200 3.71209 22.48020 -24.61220 3.20207 -5.11003 -4.26618 -26.00660 
35.29890 89.25210 -15.64710 -5.47105 -8.25330 25.68620 -3.24487 9.36977 0.84194 -11.74100 19.64580 3.51735 9.51865 -9.10416 -7.47671 0.00000 0.00000 0.00000 -50.24220 12.19510 -104.37400 23.19050 23.79970 -100.24200 30.62180 12.16720 12.96310 18.95370 2.27049 8.23643 76.67090 -28.41460 66.91770 -19.99280 23.01890 84.10400 3.34396 10.22540 4.93863 15.32490 -39.09000 8.37636 2.66174 39.81820 -10.21830 -12.17320 2.45243 1.04660 -3.11455 -0.44036 -10.30710 -5.08923 9.75828 -4.76647 5.64382 46.27260 3.05033 22.11840 -24.55530 3.13308 -4.72436 -3.49563 -25.77270 
35.43680 89.36230 -15.69360 -5.52990 -8.17477 25.38480 -3.19840 9.34238 0.80490 -11.65720 19.58900 3.47021 9.40763 -9.46524 -7.44321 0.00000 0.00000 0.00000 -50.55780 12.19960 -104.13000 23.23820 23.80790 -100.18000 30.43550 12.24420 13.31460 19.03910 2.27541 8.22287 76.67290 -28.18250 66.91250 -19.46490 22.94220 83.88220 3.24084 10.21870 4.98070 15.55660 -38.96630 8.51257 2.21330 39.65760 -9.60531 -11.99810 2.58535 1.04408 -3.03128 -0.33415 -10.32740 -5.13869 9.67296 -4.31914 5.92273 46.05820 2.23054 21.45130 -24.48450 3.01377 -4.32323 -2.61510 -25.73020 
35.57880 89.47780 -15.80210 -5.53241 -8.18337 24.97700 -3.09665 9.32523 0.75832 -11.51860 19.56180 3.43096 9.33931 -9.91803 -7.45030 0.00000 0.00000 0.00000 -50.94050 12.05190 -103.75300 23.40830 23.80670 -100.11400 30.23350 12.34150 13.75440 19.11020 2.26902 8.16283 76.81360 -28.02390 66.98190 -18.81090 22.93910 83.75250 3.10348 10.20970 5.04240 15.77460 -38.69530 8.67495 1.78427 39.41130 -8.91085 -11.89800 2.88199 1.06394 -3.02288 -0.23416 -10.58840 -5.30153 9.60464 -4.01599 6.21198 45.93930 1.36179 20.56790 -24.42870 2.86464 -3.83807 -1.56467 -25.63370 
35.72520 89.59240 -15.96890 -5.48285 -8.26570 24.41470 -2.94465 9.30598 0.71417 -11.32550 19.53800 3.40773 9.31080 -10.46810 -7.52627 0.00000 0.00000 0.00000 -51.43410 11.76010 -103.21800 23.67900 23.80560 -99.95060 29.98490 12.43700 14.20960 19.10630 2.24822 8.06766 77.17540 -27.92850 67.13730 -18.09360 23.03930 83.75900 2.94481 10.19890 5.10401 16.02440 -38.27520 8.89805 1.33475 39.10090 -8.12226 -11.84280 3.30247 1.09955 -3.12225 -0.23645 -10.92320 -5.58700 9.55241 -3.89635 6.40251 45.89790 0.63857 19.58560 -24.37700 2.70216 -3.36753 -0.60445 -25.34210 
35.87200 89.69960 -16.19390 -5.40118 -8.42617 23.64950 -2.75446 9.27594 0.67810 -11.06290 19.49390 3.38896 9.28656 -11.03770 -7.68022 0.00000 0.00000 0.00000 -52.11150 11.33590 -102.45300 23.92460 23.83770 -99.60270 29.67170 12.50240 14.57840 19.01140 2.21944 7.97317 77.78820 -27.87920 67.36350 -17.35260 23.26860 83.94520 2.77140 10.18530 5.12013 16.36390 -37.71030 9.22272 0.84969 38.77280 -7.27228 -11.79010 3.73371 1.13604 -3.25271 -0.34090 -11.06570 -5.97173 9.51613 -3.89117 6.47117 45.90060 0.13498 18.58530 -24.30040 2.53415 -3.06645 -0.06052 -24.89730 
36.01490 89.79740 -16.47840 -5.31816 -8.66751 22.65210 -2.53938 9.22918 0.64797 -10.71750 19.41110 3.35444 9.21707 -11.49580 -7.92567 0.00000 0.00000 0.00000 -53.01000 10.78730 -101.37800 24.03160 23.93150 -99.02890 29.35510 12.52760 14.79630 18.86980 2.19169 7.90207 78.61970 -27.84410 67.63850 -16.60310 23.64400 84.33110 2.59490 10.16950 5.07121 16.83100 -37.01840 9.64262 0.31815 38.46650 -6.37471 -11.70590 4.04538 1.15741 -3.25620 -0.42683 -10.82940 -6.42325 9.47862 -3.86799 6.49357 45.92040 -0.24426 17.63920 -24.22430 2.37639 -2.93037 0.10287 -24.40330 
36.15210 89.88910 -16.82160 -5.27133 -8.96440 21.41760 -2.30262 9.15529 0.61912 -10.28980 19.26790 3.29359 9.07455 -11.75860 -8.27098 0.00000 0.00000 0.00000 -54.10330 10.13050 -99.97350 23.99240 24.07530 -98.24860 29.13040 12.53020 14.89280 18.75920 2.16815 7.83716 79.60160 -27.79050 67.94140 -15.83630 24.18320 84.91660 2.41785 10.15270 4.98071 17.43440 -36.23530 10.06430 -0.30310 38.17700 -5.34271 -11.58560 4.19163 1.15886 -3.05117 -0.39790 -10.21180 -6.90428 9.38686 -3.73520 6.53537 45.95740 -0.63130 16.83180 -24.23030 2.25386 -2.79945 0.26256 -23.92270 
36.28220 89.98140 -17.21800 -5.29376 -9.27203 19.95770 -2.02928 9.03875 0.58666 -9.79077 19.04140 3.20631 8.86174 -11.87160 -8.68384 0.00000 0.00000 0.00000 -55.35020 9.38655 -98.27490 23.86140 24.23030 -97.32370 29.04390 12.54100 14.97000 18.74150 2.14631 7.74118 80.65610 -27.70320 68.23900 -15.00030 24.91010 85.68290 2.21677 10.13440 4.89324 18.15800 -35.39710 10.38310 -1.03519 37.85340 -4.06184 -11.44000 4.24352 1.14853 -2.72835 -0.29770 -9.38213 -7.37429 9.18295 -3.47300 6.61655 46.01350 -1.11101 16.19770 -24.36330 2.17639 -2.56737 0.67283 -23.47610 
36.39980 90.08290 -17.66090 -5.38756 -9.56893 18.28390 -1.69987 8.87563 0.54726 -9.23682 18.73350 3.09895 8.60494 -11.99320 -9.06688 0.00000 0.00000 0.00000 -56.75670 8.55748 -96.33160 23.61660 24.37580 -96.31210 29.08430 12.57630 15.09590 18.81960 2.12148 7.59208 81.70150 -27.57500 68.48260 -14.01020 25.83220 86.57750 1.94723 10.11210 4.85682 18.96010 -34.49780 10.60120 -1.79556 37.43630 -2.54460 -11.26460 4.31204 1.13648 -2.46352 -0.25232 -8.58131 -7.80935 8.86205 -3.10657 6.72645 46.06630 -1.72303 15.68530 -24.57370 2.12719 -2.28848 1.20235 -23.02940 
36.49510 90.20220 -18.15010 -5.51229 -9.86824 16.39660 -1.32050 8.68699 0.50236 -8.65149 18.38530 2.98379 8.35280 -12.28200 -9.27348 0.00000 0.00000 0.00000 -58.37570 7.61266 -94.19080 23.12670 24.52030 -95.24140 29.22030 12.62730 15.24660 18.92470 2.08796 7.39240 82.68140 -27.38600 68.64020 -12.81540 26.92330 87.53210 1.56948 10.08310 4.90172 19.77280 -33.48580 10.78010 -2.46944 36.88980 -0.88560 -11.01010 4.43885 1.12106 -2.34380 -0.31383 -7.97848 -8.22371 8.46592 -2.68263 6.81900 46.09160 -2.45358 15.21380 -24.78520 2.08266 -2.07133 1.58577 -22.54450 
36.55830 90.34190 -18.68960 -5.62541 -10.18370 14.29240 -0.92438 8.50332 0.45638 -8.05409 18.04510 2.86825 8.12291 -12.72470 -9.18805 0.00000 0.00000 0.00000 -60.24930 6.49959 -91.90310 22.34780 24.67440 -94.16070 29.43600 12.68460 15.38850 18.96220 2.04170 7.16075 83.58660 -27.10280 68.71700 -11.47050 28.13750 88.51470 1.07644 10.04590 5.02600 20.54930 -32.32150 10.91870 -3.05866 36.21130 0.89929 -10.57000 4.56609 1.08523 -2.31007 -0.41187 -7.57710 -8.64156 8.02092 -2.25687 6.82403 46.10210 -3.21894 14.78420 -25.03920 2.04864 -1.87759 1.94630 -22.15280 
36.57990 90.49660 -19.27700 -5.73364 -10.51470 11.98320 -0.53508 8.34035 0.41309 -7.44463 17.73480 2.74912 7.86384 -13.12750 -8.81316 0.00000 0.00000 0.00000 -62.35140 5.16568 -89.52000 21.41600 24.83920 -93.15640 29.74100 12.75080 15.52770 18.89820 1.98374 6.91282 84.39430 -26.69850 68.73180 -10.11840 29.41880 89.54250 0.50183 10.00160 5.20589 21.31750 -31.00800 10.97300 -3.66646 35.41120 2.84788 -9.82647 4.63368 1.01086 -2.29511 -0.50444 -7.25990 -9.04313 7.52633 -1.88061 6.69730 46.13550 -3.92205 14.53030 -25.52180 2.07092 -1.46535 2.93245 -22.13500 
36.54980 90.65850 -19.90180 -5.87778 -10.86010 9.51356 -0.14253 8.19875 0.37117 -6.81457 17.46040 2.61658 7.52706 -13.33300 -8.25034 0.00000 0.00000 0.00000 -64.60130 3.57374 -87.09450 20.43890 25.01270 -92.27570 30.12220 12.81280 15.61630 18.78820 1.91789 6.64290 85.02000 -26.15870 68.69610 -8.88747 30.69970 90.64320 -0.08842 9.95418 5.39822 22.13130 -29.55780 10.92300 -4.35070 34.47050 4.93933 -8.75827 4.70485 0.90081 -2.37513 -0.71972 -6.93642 -9.37772 6.99844 -1.61339 6.44100 46.20260 -4.52834 14.58190 -26.35980 2.18927 -0.63402 5.00456 -22.57910 
